<svg width="672" height="120" viewBox="0 0 672 120" fill="none" xmlns="http://www.w3.org/2000/svg">
<g style="mix-blend-mode:overlay" opacity="0.1">
<path d="M1538.16 636.476L1500.38 702.915L1450.7 678.077L1509.5 574.764L1552.56 596.256L1562.74 567.855L-579.164 -200.032L-588.328 -174.576L-563.345 -165.485L-604.111 -54.4258L-628.257 -63.2262L-637.385 -37.7706L1504.52 730.116L1538.16 636.476ZM-540.072 -28.6065L-589.746 -53.4076L-530.944 -156.757L-481.306 -131.92L-540.072 -28.6065ZM-457.923 -1.87822L-510.252 -20.9335L-469.523 -131.993L-417.157 -112.865L-457.923 -1.87822ZM-432.285 9.03131L-405.121 -106.355L-351.482 -91.8092L-378.683 23.5774L-432.285 9.03131ZM-312.608 50.0876L-364.901 31.0323L-324.172 -80.0269L-271.842 -60.9716L-312.608 50.0876ZM-248.569 75.7614L-298.243 50.924L-239.441 -52.3894L-189.803 -27.552L-248.569 75.7614ZM-166.42 102.49L-218.749 83.5072L-178.02 -27.552L-125.691 -8.4966L-166.42 102.49ZM-140.964 113.399L-113.763 -1.98732L-60.1245 12.5587L-87.3256 127.945L-140.964 113.399ZM-21.2502 154.456L-73.5795 135.364L-32.8506 24.3047L19.588 43.5055L-21.2502 154.456ZM42.7889 180.129L-6.88586 155.292L51.8802 51.9785L101.555 76.816L42.7889 180.129ZM125.047 207.149L72.7173 188.057L113.446 76.9978L165.776 96.0532L125.047 207.149ZM150.502 218.058L177.667 102.708L231.306 117.254L204.141 232.677L150.502 218.058ZM270.507 259.224L218.178 240.168L258.907 129.109L311.236 148.164L270.507 259.224ZM334.51 284.897L284.872 260.096L343.638 156.783L393.167 181.693L334.51 284.897ZM416.659 311.626L364.329 292.57L405.058 181.693L457.388 200.748L416.659 311.626ZM442.115 322.535L469.316 207.149L522.991 221.695L495.971 337.336L442.115 322.535ZM561.829 363.591L509.499 344.536L550.228 233.477L602.558 252.532L561.829 363.591ZM625.831 389.265L576.156 364.428L634.959 261.115L684.597 285.952L625.831 389.265ZM707.98 415.994L655.651 396.938L696.38 285.879L748.709 304.935L707.98 415.994ZM733.436 426.903L760.6 311.517L814.275 326.063L787.074 441.449L733.436 426.903ZM853.15 467.959L800.857 448.904L841.804 338.063L894.097 357.082L853.15 467.959ZM917.152 493.597L867.732 468.978L926.498 365.664L976.173 390.502L917.152 493.597ZM999.338 520.362L947.227 501.706L987.992 390.647L1040.28 409.666L999.338 520.362ZM1024.79 531.271L1052.36 416.321L1106 430.867L1078.83 546.254L1024.79 531.271ZM1144.51 572.291L1092.18 553.236L1132.91 442.177L1185.6 461.705L1144.51 572.291ZM1208.55 597.965L1158.87 573.164L1217.64 469.85L1267.31 494.688L1208.55 597.965ZM1291.06 625.348L1238.73 606.256L1279.46 495.197L1331.79 514.252L1291.06 625.348ZM1316.51 636.257L1343.72 520.871L1397.35 535.417L1370.3 650.803L1316.51 636.257ZM1436.26 677.314L1384.01 658.076L1424.77 547.017L1477.1 566.073L1436.26 677.314Z" fill="#2B2D2C"/>
<path d="M1584.13 508.325L1261.97 392.829L1295.97 362.101L1597.8 470.287L1614.2 424.576L1568.16 116.527L1622.38 135.982L1650.38 323.517L1769.37 -8.3512L1627.55 119.545L1573.36 100.126L1805.59 -109.228L1821.59 -153.884L1519.21 -262.289L1512.45 -307.6L1835.23 -191.886L1842.5 -212.614L-299.407 -980.537L-306.68 -959.772L26.8608 -840.168L-7.17694 -809.475L-309.88 -918.207L-313.517 -941.408L-329.227 -897.77L-279.37 -564.12L-333.591 -583.539L-365.265 -796.529L-499.634 -421.968L-338.645 -567.211L-284.461 -547.792L-535.853 -320.946L-551.527 -277.308L-533.126 -293.89L-230.277 -185.304L-223.513 -139.993L-557.782 -259.998L-565.055 -239.27L1576.85 528.653L1584.13 508.325ZM1595.03 445.959L1314.51 345.336L1348.55 314.644L1588.34 400.611L1595.03 445.959ZM1584.56 375.919L1367.1 298.062L1401.14 267.333L1577.91 330.79L1584.56 375.919ZM1574.09 305.88L1419.65 250.496L1453.65 219.767L1567.4 260.569L1574.09 305.88ZM1563.62 235.841L1472.16 203.112L1506.16 172.42L1556.85 190.603L1563.62 235.841ZM1553.18 165.802L1524.7 155.583L1548.45 134.164L1553.18 165.802ZM1569.36 74.0522L1564.63 42.4147L1593.11 52.6333L1569.36 74.0522ZM1611.65 35.8688L1560.96 17.6863L1554.2 -27.6246L1645.69 5.104L1611.65 35.8688ZM1664.24 -11.4058L1550.56 -52.3166L1543.8 -97.6639L1698.35 -42.2798L1664.24 -11.4058ZM1716.82 -58.8623L1540.01 -122.247L1533.25 -167.558L1750.82 -89.5545L1716.82 -58.8623ZM1803.41 -137.011L1769.41 -106.282L1529.4 -192.25L1522.63 -237.597L1803.41 -137.011ZM1549.8 91.8348L1495.58 72.4159L1456.77 -187.522L1261.68 -11.4421L1207.46 -30.8975L1492.99 -288.545L1549.8 91.8348ZM1001.45 166.783L1035.48 136.091L1212.26 199.439L1219.02 244.787L1001.45 166.783ZM1222.73 269.515L1229.49 314.826L948.717 214.204L982.719 183.511L1222.73 269.515ZM1054.03 119.327L1088.07 88.6348L1201.45 129.4L1208.26 174.747L1054.03 119.327ZM1106.61 72.0522L1140.65 41.3236L1191.35 59.5062L1197.82 104.672L1106.61 72.0522ZM1159.2 24.5956L1182.91 3.17664L1187.64 34.778L1159.2 24.5956ZM1385.32 -220.687L1351.28 -189.995L1174.51 -253.38L1167.74 -298.69L1385.32 -220.687ZM1164.04 -323.419L1157.27 -368.766L1437.83 -268.289L1403.79 -237.597L1164.04 -323.419ZM1332.73 -173.267L1298.7 -142.575L1184.98 -183.34L1178.22 -228.688L1332.73 -173.267ZM1280.15 -125.992L1246.15 -95.3002L1195.24 -113.483L1188.47 -158.794L1280.15 -125.992ZM1227.57 -78.7177L1203.82 -57.2986L1199.13 -88.9L1227.57 -78.7177ZM1490.45 -315.928L1456.45 -285.235L1153.42 -393.604L1146.62 -438.951L1490.45 -315.928ZM1184.25 -39.5524L1130.03 -59.0078L1091.27 -318.909L895.988 -142.757L841.767 -162.176L1127.34 -419.823L1184.25 -39.5524ZM635.468 35.6507L669.506 4.92218L846.277 68.3066L853.041 113.654L635.468 35.6507ZM856.714 138.346L863.477 183.657L582.884 83.0708L616.885 52.3787L856.714 138.346ZM688.052 -11.8058L722.053 -42.5344L835.803 -1.73267L842.567 43.5056L688.052 -11.8058ZM740.636 -59.2624L774.637 -89.9546L825.33 -71.772L832.094 -26.4609L740.636 -59.2624ZM793.184 -106.719L816.93 -128.138L821.621 -96.5002L793.184 -106.719ZM1019.3 -352.002L985.264 -321.31L808.493 -384.694L801.729 -430.005L1019.3 -352.002ZM798.056 -454.697L791.292 -500.044L1071.89 -399.458L1037.81 -368.73L798.056 -454.697ZM966.718 -304.582L932.716 -273.853L818.966 -314.655L812.348 -359.966L966.718 -304.582ZM914.17 -257.125L880.169 -226.433L829.44 -244.616L822.676 -289.926L914.17 -257.125ZM861.623 -209.85L837.804 -188.25L833.076 -219.887L861.623 -209.85ZM1124.47 -447.06L1090.47 -416.368L787.62 -524.954L780.856 -570.265L1124.47 -447.06ZM818.312 -170.685L764.091 -190.104L725.253 -449.97L530.118 -273.889L475.898 -293.345L761.437 -550.992L818.312 -170.685ZM269.635 -95.5184L303.672 -126.211L480.443 -62.8625L487.207 -17.5151L269.635 -95.5184ZM490.88 7.14044L497.644 52.4514L217.05 -48.0618L251.088 -78.7905L490.88 7.14044ZM322.219 -143.048L356.256 -173.74L469.97 -132.974L476.734 -87.4089L322.219 -143.048ZM374.766 -190.504L408.804 -221.196L459.497 -203.014L466.297 -157.703L374.766 -190.504ZM427.35 -237.779L451.097 -259.198L455.824 -227.597L427.35 -237.779ZM653.469 -483.062L619.613 -452.442L442.842 -515.827L436.078 -561.138L653.469 -483.062ZM432.223 -585.793L425.459 -631.141L706.053 -530.518L672.051 -499.826L432.223 -585.793ZM600.921 -435.642L566.883 -404.949L453.133 -445.715L446.369 -491.062L600.921 -435.642ZM548.337 -388.258L514.154 -357.566L463.461 -375.748L456.697 -421.059L548.337 -388.258ZM495.753 -340.983L472.007 -319.564L467.315 -351.165L495.753 -340.983ZM758.637 -578.193L724.635 -547.501L421.75 -656.051L415.022 -701.362L758.637 -578.193ZM452.442 -301.818L398.222 -321.237L359.42 -581.175L164.321 -405.059L110.064 -424.478L395.64 -682.125L452.442 -301.818ZM-96.1989 -226.651L-62.1612 -257.38L114.61 -193.995L121.41 -148.648L-96.1989 -226.651ZM125.047 -123.774L131.811 -78.4632L-148.783 -179.049L-114.781 -209.741L125.047 -123.774ZM-43.6513 -273.926L-9.61346 -304.618L104.1 -263.853L110.901 -218.542L-43.6513 -273.926ZM8.9328 -321.201L42.9705 -351.893L93.6635 -333.71L100.427 -288.399L8.9328 -321.201ZM61.5167 -368.657L85.2632 -390.076L89.9543 -358.438L61.5167 -368.657ZM287.599 -613.94L253.597 -583.248L76.8264 -646.632L70.0626 -691.943L287.599 -613.94ZM66.3533 -716.635L59.5894 -762.346L340.146 -661.76L306.145 -631.032L66.3533 -716.635ZM235.051 -566.52L201.013 -535.791L87.2996 -576.557L80.4993 -621.904L235.051 -566.52ZM182.467 -519.245L148.429 -488.553L97.7364 -506.735L90.9725 -552.046L182.467 -519.245ZM129.883 -471.789L106.137 -450.37L101.446 -481.971L129.883 -471.789ZM392.803 -709.253L358.802 -678.561L55.9529 -787.074L49.189 -832.385L392.803 -709.253ZM29.8063 -813.366L86.6087 -432.878L32.4246 -452.333L-6.41333 -712.271L-201.512 -536.191L-255.733 -555.647L29.8063 -813.366ZM-306.208 -893.37L-25.5778 -792.893L-59.6155 -762.201L-299.625 -848.168L-306.208 -893.37ZM-295.734 -823.33L-78.1618 -745.327L-112.163 -714.635L-288.934 -778.02L-295.734 -823.33ZM-285.261 -753.291L-130.746 -697.907L-164.747 -667.215L-278.606 -708.089L-285.261 -753.291ZM-274.788 -683.252L-183.33 -650.523L-217.331 -619.831L-268.061 -638.014L-274.788 -683.252ZM-264.351 -613.213L-235.877 -602.994L-259.624 -581.611L-264.351 -613.213ZM-280.534 -521.463L-275.806 -489.862L-304.062 -500.153L-280.534 -521.463ZM-322.826 -483.425L-272.133 -465.243L-265.37 -419.932L-356.864 -452.661L-322.826 -483.425ZM-375.41 -435.969L-261.66 -395.204L-254.896 -349.856L-409.521 -405.277L-375.41 -435.969ZM-427.994 -388.694L-251.187 -325.31L-244.423 -279.999L-462.032 -358.002L-427.994 -388.694ZM-514.58 -310.546L-480.542 -341.238L-240.75 -255.271L-233.986 -209.96L-514.58 -310.546ZM-260.969 -539.391L-206.749 -519.972L-167.947 -260.034L27.1516 -436.114L81.4085 -416.477L-204.167 -158.83L-260.969 -539.391ZM-201.331 -132.102L-167.329 -162.83L135.556 -54.244L142.32 -8.89661L-201.331 -132.102ZM104.864 -408.477L159.048 -389.058L197.777 -128.72L392.912 -304.763L447.133 -285.344L161.557 -27.6973L104.864 -408.477ZM164.503 -1.18726L198.504 -31.8794L501.353 76.6705L508.117 122.018L164.503 -1.18726ZM470.661 -277.562L525.063 -257.489L563.865 2.44928L759 -173.631L813.221 -154.175L527.645 103.472L470.661 -277.562ZM530.3 129.727L564.301 98.9988L867.187 207.585L873.95 252.896L530.3 129.727ZM836.494 -146.648L890.678 -127.229L929.516 132.709L1124.65 -43.3344L1178.84 -23.9155L893.297 233.732L836.494 -146.648ZM895.988 261.696L929.989 231.004L1232.84 339.554L1239.6 384.902L895.988 261.696ZM1202.15 -14.6786L1256.37 4.77673L1295.2 264.715L1490.3 88.6348L1544.52 108.09L1258.98 365.737L1202.15 -14.6786Z" fill="#2B2D2C"/>
<path d="M1499.14 745.316L1478.63 717.097L1460.52 710.588L1289.35 755.171L1185.53 612.002L1167.42 605.492L996.245 650.076L892.423 506.906L874.277 500.397L703.142 544.981L599.283 401.811L581.173 395.338L410.003 439.886L306.18 296.752L288.034 290.243L116.9 334.827L13.0408 191.657L-5.06903 185.148L-176.203 229.731L-280.099 86.5618L-298.208 80.0524L-469.343 124.636L-573.202 -18.5335L-591.312 -25.0065L-647.096 -10.4968L-655.205 12.1223L-588.148 -5.33291L-477.452 147.255L-295.045 99.7259L-184.313 252.35L-1.90527 204.821L108.79 357.409L291.198 309.917L401.893 462.505L584.337 415.012L695.033 567.6L877.44 520.107L988.136 672.695L1170.58 625.166L1281.28 777.754L1463.72 730.261L1491.03 767.972L1499.14 745.316Z" fill="#2B2D2C"/>
<path d="M1477.69 805.21L1453.54 771.935L1449.32 770.408L1445.07 768.917L1267.89 815.064L1160.4 666.84L1156.18 665.349L1151.96 663.822L974.791 709.969L867.296 561.781L863.041 560.254L858.823 558.727L681.652 604.91L574.157 456.686L569.938 455.159L565.72 453.668L388.513 499.815L281.017 351.591L276.835 350.063L272.58 348.572L95.4095 394.72L-12.0859 246.495L-16.3043 244.968L-20.5226 243.477L-197.694 289.624L-305.225 141.437L-309.444 139.909L-313.662 138.382L-490.833 184.566L-598.328 36.3413L-602.547 34.8139L-606.765 33.323L-668.586 49.3963L-676.695 72.0155L-609.602 54.5602L-498.942 207.148L-316.499 159.655L-205.803 312.244L-23.3591 264.751L87.3 417.339L269.744 369.846L380.439 522.398L562.847 474.905L673.542 627.493L855.986 580L966.682 732.588L1149.09 685.095L1259.79 837.684L1442.23 790.191L1469.58 827.865L1477.69 805.21Z" fill="#2B2D2C"/>
<path d="M1456.19 865.14L1432.04 831.829L1427.83 830.302L1423.61 828.811L1246.4 874.958L1138.91 726.77L1134.72 725.243L1130.47 723.715L953.298 769.899L845.803 621.675L841.584 620.148L837.366 618.657L660.158 664.804L552.7 516.58L548.481 515.052L544.263 513.561L367.055 559.709L259.56 411.484L255.342 409.957L251.123 408.466L73.916 454.613L-33.5793 306.425L-37.7613 304.898L-42.0161 303.371L-219.187 349.555L-326.682 201.33L-330.901 199.803L-335.119 198.312L-512.29 244.459L-619.785 96.2349L-624.004 94.7075L-628.222 93.2167L-690.043 109.326L-698.152 131.946L-631.095 114.49L-520.4 267.078L-337.992 219.549L-227.26 372.174L-44.8525 324.644L65.843 477.233L248.251 429.74L358.946 582.328L541.39 534.835L652.085 687.423L834.493 639.894L945.189 792.518L1127.63 744.989L1238.29 897.577L1420.74 850.084L1448.08 887.759L1456.19 865.14Z" fill="#2B2D2C"/>
</g>
</svg>
