<svg width="144" height="118" viewBox="0 0 144 118" fill="none" xmlns="http://www.w3.org/2000/svg">
<path opacity="0.3" d="M144 0.00561523H0V117.332H144V0.00561523Z" fill="black"/>
<path fill-rule="evenodd" clip-rule="evenodd" d="M35.5979 29.7642C32.2349 33.8011 29.5541 38.4149 27.7301 43.4331L36.1104 46.5093C34.5831 50.6702 33.8014 55.0677 33.8014 59.5H25.0027C25.0682 65.5814 26.3265 71.3798 28.5573 76.677L36.4978 73.5009C38.1439 77.6161 40.5028 81.4089 43.4662 84.7049L37.3413 90.2116C40.9362 94.0598 45.1872 97.2993 49.9186 99.7562L53.6879 92.7252C57.5943 94.8194 61.8393 96.2083 66.2281 96.8281L65.1343 104.573C67.2155 104.854 69.3406 105 71.5 105C74.6861 105 77.7973 104.683 80.8032 104.079L79.2014 96.4035C83.5402 95.4981 87.6853 93.8345 91.4464 91.4894L95.6892 98.2939C100.205 95.5674 104.215 92.1003 107.545 88.0633L101.046 82.9135C103.799 79.4397 105.918 75.5077 107.305 71.2981L115.475 73.9902C117.111 69.2916 118 64.2484 118 59C118 58.6619 117.996 58.3246 117.989 57.9883L109.179 58.2748C109.035 53.8448 108.11 49.475 106.449 45.366L114.728 42.0175C112.704 36.9779 109.804 32.3761 106.216 28.3954L99.5771 34.3434C96.6194 31.0423 93.1028 28.2887 89.1887 26.209L93.347 18.3828C88.9491 16.0631 84.1301 14.4219 79.0328 13.6005L77.6052 22.2991C73.2314 21.5813 68.7653 21.6404 64.4121 22.4738L62.7541 13.8124C57.4909 14.8033 52.5422 16.6717 48.0693 19.2579L52.5313 26.9214C48.7009 29.1516 45.2939 32.0397 42.4667 35.4532L35.5979 29.7642ZM71.5 85C86.1355 85 98 73.3594 98 59C98 44.6406 86.1355 33 71.5 33C56.8645 33 45 44.6406 45 59C45 73.3594 56.8645 85 71.5 85Z" fill="#C4C4C4"/>
</svg>
