<svg width="21" height="18" viewBox="0 0 21 18" fill="none" xmlns="http://www.w3.org/2000/svg">
<path d="M13.1996 0H5.09961C4.35261 0 3.71361 0.45 3.44361 1.098L0.725609 7.443C0.644609 7.65 0.599609 7.866 0.599609 8.1V9.9C0.599609 10.89 1.40961 11.7 2.39961 11.7H8.07861L7.22361 15.813L7.19661 16.101C7.19661 16.47 7.34961 16.812 7.59261 17.055L8.54661 18L14.4776 12.069C14.8016 11.745 14.9996 11.295 14.9996 10.8V1.8C14.9996 0.81 14.1896 0 13.1996 0ZM16.7996 0V10.8H20.3996V0H16.7996Z" fill="#C79947"/>
</svg>
