<svg width="16" height="15" viewBox="0 0 16 15" fill="none" xmlns="http://www.w3.org/2000/svg">
<path d="M8.4197 6.70042C8.26601 6.85721 8.26601 7.10865 8.4197 7.26544C9.05474 7.91328 9.05474 8.96639 8.4197 9.61423L5.08498 13.0161C4.44994 13.664 3.41763 13.664 2.78258 13.0161L2.28092 12.5044C1.64588 11.8565 1.64588 10.8034 2.28092 10.1556L5.61564 6.75367C5.76932 6.59689 5.76932 6.34544 5.61564 6.18866C5.46195 6.03187 5.21547 6.03187 5.06178 6.18866L1.72707 9.59057C1.27181 10.055 1.01953 10.6733 1.01953 11.33C1.01953 11.9867 1.26891 12.605 1.72707 13.0694L2.22873 13.5812C2.69849 14.0604 3.31613 14.3 3.93378 14.3C4.55143 14.3 5.16908 14.0604 5.63884 13.5812L8.97355 10.1792C9.91307 9.2208 9.91307 7.65887 8.97355 6.70042C8.82276 6.54364 8.57338 6.54364 8.4197 6.70042Z" fill="#2B2D2C"/>
<path d="M14.3149 2.2306L13.8132 1.71884C12.8737 0.760387 11.3426 0.760387 10.4031 1.71884L7.06841 5.12075C6.12889 6.0792 6.12889 7.64113 7.06841 8.59958C7.2221 8.75636 7.46858 8.75636 7.62227 8.59958C7.77595 8.44279 7.77595 8.19135 7.62227 8.03456C6.98722 7.38672 6.98722 6.33361 7.62227 5.68576L10.957 2.28385C11.592 1.63601 12.6243 1.63601 13.2594 2.28385L13.761 2.79562C14.3961 3.44346 14.3961 4.49657 13.761 5.14442L10.4263 8.54633C10.2726 8.70311 10.2726 8.95456 10.4263 9.11134C10.5017 9.18826 10.6032 9.22967 10.7018 9.22967C10.8004 9.22967 10.9019 9.19121 10.9773 9.11134L14.312 5.70943C14.7673 5.245 15.0195 4.62673 15.0195 3.97002C15.0195 3.3133 14.7702 2.69504 14.3149 2.2306Z" fill="#2B2D2C"/>
<path d="M8.4197 6.70042C8.26601 6.85721 8.26601 7.10865 8.4197 7.26544C9.05474 7.91328 9.05474 8.96639 8.4197 9.61423L5.08498 13.0161C4.44994 13.664 3.41763 13.664 2.78258 13.0161L2.28092 12.5044C1.64588 11.8565 1.64588 10.8034 2.28092 10.1556L5.61564 6.75367C5.76932 6.59689 5.76932 6.34544 5.61564 6.18866C5.46195 6.03187 5.21547 6.03187 5.06178 6.18866L1.72707 9.59057C1.27181 10.055 1.01953 10.6733 1.01953 11.33C1.01953 11.9867 1.26891 12.605 1.72707 13.0694L2.22873 13.5812C2.69849 14.0604 3.31613 14.3 3.93378 14.3C4.55143 14.3 5.16908 14.0604 5.63884 13.5812L8.97355 10.1792C9.91307 9.2208 9.91307 7.65887 8.97355 6.70042C8.82276 6.54364 8.57338 6.54364 8.4197 6.70042Z" stroke="black" stroke-width="0.2"/>
<path d="M14.3149 2.2306L13.8132 1.71884C12.8737 0.760387 11.3426 0.760387 10.4031 1.71884L7.06841 5.12075C6.12889 6.0792 6.12889 7.64113 7.06841 8.59958C7.2221 8.75636 7.46858 8.75636 7.62227 8.59958C7.77595 8.44279 7.77595 8.19135 7.62227 8.03456C6.98722 7.38672 6.98722 6.33361 7.62227 5.68576L10.957 2.28385C11.592 1.63601 12.6243 1.63601 13.2594 2.28385L13.761 2.79562C14.3961 3.44346 14.3961 4.49657 13.761 5.14442L10.4263 8.54633C10.2726 8.70311 10.2726 8.95456 10.4263 9.11134C10.5017 9.18826 10.6032 9.22967 10.7018 9.22967C10.8004 9.22967 10.9019 9.19121 10.9773 9.11134L14.312 5.70943C14.7673 5.245 15.0195 4.62673 15.0195 3.97002C15.0195 3.3133 14.7702 2.69504 14.3149 2.2306Z" stroke="black" stroke-width="0.2"/>
</svg>
