<svg width="16" height="12" viewBox="0 0 16 12" fill="none" xmlns="http://www.w3.org/2000/svg">
<path fill-rule="evenodd" clip-rule="evenodd" d="M13.707 0.0857405C13.5808 -0.0322546 13.3806 -0.0278255 13.2598 0.0956325L11.4931 1.90117C11.4912 1.90038 11.4893 1.8996 11.4875 1.89881L9.34409 4.08925C9.34577 4.09021 9.34745 4.09117 9.34912 4.09213L6.47327 7.03109C6.47221 7.02949 6.47115 7.0279 6.47009 7.0263L4.10595 9.44231C4.10762 9.44328 4.1093 9.44425 4.11098 9.44521L2.12274 11.4771C2.00193 11.6005 2.00626 11.7963 2.13241 11.9143C2.25856 12.0323 2.45876 12.0278 2.57957 11.9044L4.68979 9.74785C5.75708 10.2516 6.97039 10.5373 8.2664 10.5373C11.6516 10.5373 14.4162 8.58828 15.601 5.89407C14.9113 4.32573 13.6672 3.0099 12.0912 2.18405L13.7166 0.52293C13.8375 0.399472 13.8331 0.203736 13.707 0.0857405ZM9.84219 4.4824L6.89377 7.49551C7.2651 7.8001 7.74392 7.98353 8.26656 7.98353C9.44687 7.98353 10.4037 7.04805 10.4037 5.89407C10.4037 5.34985 10.1909 4.85423 9.84219 4.4824ZM8.2664 1.25084C9.20992 1.25084 10.1127 1.40743 10.9489 1.69318L8.81487 3.87402C8.63989 3.82874 8.45611 3.80462 8.26656 3.80462C7.08626 3.80462 6.12944 4.74009 6.12944 5.89407C6.12944 6.11177 6.16349 6.32168 6.22667 6.51901L3.64651 9.15579C2.42822 8.33663 1.48016 7.20334 0.931807 5.89407C2.0602 3.19986 4.8812 1.25084 8.2664 1.25084Z" fill="#C4C4C4"/>
</svg>
