<svg width="19" height="15" viewBox="0 0 19 15" fill="none" xmlns="http://www.w3.org/2000/svg">
<rect x="1.5" y="1.41422" width="2" height="18" rx="1" transform="rotate(-45 1.5 1.41422)" fill="#C4C4C4"/>
<path fill-rule="evenodd" clip-rule="evenodd" d="M4.26791 2.26791C2.32505 3.33832 0.813965 5.0122 0 7C1.42559 10.4815 4.98959 13 9.26639 13C10.9624 13 12.5351 12.604 13.9089 11.9089L11.0379 9.03786C10.5638 9.45029 9.94434 9.7 9.2666 9.7C7.77542 9.7 6.5666 8.49118 6.5666 7C6.5666 6.32226 6.81631 5.70285 7.22874 5.22874L4.26791 2.26791ZM11.9633 7.13487C11.9655 7.09019 11.9666 7.04522 11.9666 7C11.9666 5.50882 10.7578 4.3 9.2666 4.3C9.22138 4.3 9.17642 4.30111 9.13174 4.30331L6.2621 1.43367C7.20631 1.15227 8.2148 1 9.26639 1C13.4719 1 17.0359 3.51853 18.5328 7C17.8957 8.48173 16.8971 9.78904 15.6304 10.802L11.9633 7.13487Z" fill="#C4C4C4"/>
</svg>
