<svg width="21" height="18" viewBox="0 0 21 18" fill="none" xmlns="http://www.w3.org/2000/svg">
<path d="M0.599609 18H4.19961V7.2H0.599609V18ZM20.3996 8.1C20.3996 7.11 19.5896 6.3 18.5996 6.3H12.9206L13.7756 2.187L13.8026 1.899C13.8026 1.53 13.6496 1.188 13.4066 0.945L12.4526 0L6.53061 5.931C6.19761 6.255 5.99961 6.705 5.99961 7.2V16.2C5.99961 17.19 6.80961 18 7.79961 18H15.8996C16.6466 18 17.2856 17.55 17.5556 16.902L20.2736 10.557C20.3546 10.35 20.3996 10.134 20.3996 9.9V8.1Z" fill="#969696"/>
</svg>
