<svg width="20" height="20" viewBox="0 0 20 20" fill="none" xmlns="http://www.w3.org/2000/svg">
<path fill-rule="evenodd" clip-rule="evenodd" d="M14.2644 0H4.81226C2.1586 0 0 2.15889 0 4.81226V14.2644C0 16.918 2.1586 19.0763 4.81226 19.0763H14.2644C16.918 19.0763 19.0763 16.918 19.0763 14.2644V4.81226C19.0763 2.15889 16.918 0 14.2644 0ZM17.0005 14.2644C17.0005 15.7732 15.7729 17.0008 14.2644 17.0008H4.81226C3.3037 17.0008 2.07609 15.7732 2.07609 14.2644V4.81226C2.07609 3.3037 3.3037 2.07638 4.81226 2.07638H14.2644C15.7729 2.07638 17.0005 3.3037 17.0005 4.81226V14.2644ZM14.6082 5.64158C13.967 5.64158 13.4453 5.12022 13.4453 4.47909C13.4453 3.83826 13.967 3.31689 14.6082 3.31689C15.2493 3.31689 15.7707 3.83826 15.7707 4.47909C15.7707 5.12022 15.2493 5.64158 14.6082 5.64158ZM4.625 9.53824C4.625 6.8293 6.82914 4.62549 9.53781 4.62549C12.2471 4.62549 14.4512 6.8296 14.4512 9.53824C14.4512 12.2472 12.2471 14.4513 9.53781 14.4513C6.82914 14.4513 4.625 12.2472 4.625 9.53824ZM6.70079 9.53824C6.70079 11.1027 7.97424 12.3758 9.53781 12.3758C11.1023 12.3758 12.3748 11.1027 12.3748 9.53824C12.3748 7.97439 11.1023 6.70184 9.53781 6.70184C7.97424 6.70184 6.70079 7.97439 6.70079 9.53824Z" fill="#C4C4C4"/>
</svg>
