<svg width="19" height="20" viewBox="0 0 19 20" fill="none" xmlns="http://www.w3.org/2000/svg">
<path d="M18.9471 12.5637V19.8944H14.8861V13.0547C14.8861 11.3365 14.2988 10.1639 12.8288 10.1639C11.7067 10.1639 11.0389 10.9542 10.7452 11.7186C10.638 11.9919 10.6105 12.3722 10.6105 12.7548V19.8944H6.54811C6.54811 19.8944 6.60282 8.31019 6.54811 7.10998H10.6101V8.92212C10.6018 8.93568 10.5911 8.95029 10.5834 8.96343H10.6101V8.92212C11.1497 8.05226 12.1135 6.80964 14.2708 6.80964C16.9435 6.8096 18.9471 8.63686 18.9471 12.5637ZM2.29872 0.947266C0.908994 0.947266 0 1.90121 0 3.15568C0 4.38281 0.882696 5.3657 2.2448 5.3657H2.27194C3.68857 5.3657 4.5696 4.38299 4.5696 3.15568C4.5429 1.90121 3.68857 0.947266 2.29872 0.947266ZM0.241268 19.8944H4.30207V7.10998H0.241268V19.8944Z" fill="#C4C4C4"/>
</svg>
