<svg width="19" height="16" viewBox="0 0 19 16" fill="none" xmlns="http://www.w3.org/2000/svg">
<path d="M18.9471 1.86812C18.2498 2.18513 17.5015 2.40013 16.7153 2.49611C17.5181 2.00295 18.1326 1.22072 18.4238 0.291508C17.6708 0.748207 16.8396 1.07983 15.954 1.2596C15.2448 0.483443 14.2361 0 13.1172 0C10.9707 0 9.23021 1.78554 9.23021 3.98649C9.23021 4.29864 9.26454 4.60352 9.33085 4.89506C6.10098 4.72863 3.23696 3.14109 1.32011 0.728769C0.985035 1.31668 0.794418 2.00171 0.794418 2.73295C0.794418 4.11646 1.48113 5.33718 2.52304 6.05137C1.88605 6.02952 1.28695 5.84975 0.762468 5.55094V5.60074C0.762468 7.53203 2.10273 9.14386 3.87986 9.51071C3.55426 9.6006 3.21092 9.6504 2.85573 9.6504C2.60474 9.6504 2.36202 9.62489 2.12403 9.5763C2.61892 11.1614 4.05392 12.3141 5.75411 12.3457C4.4245 13.4146 2.74799 14.0499 0.927048 14.0499C0.613306 14.0499 0.304269 14.0304 0 13.9952C1.72032 15.1285 3.76268 15.7893 5.95777 15.7893C13.1078 15.7893 17.0161 9.71357 17.0161 4.44443L17.0031 3.92821C17.7667 3.36942 18.4273 2.66737 18.9471 1.86812Z" fill="#C4C4C4"/>
</svg>
